<svg width="1391" height="213" viewBox="0 0 1391 213" fill="none" xmlns="http://www.w3.org/2000/svg">
<g clip-path="url(#clip0_13474_1761)">
<path d="M107.804 70.9734C107.025 63.1117 103.679 57.0043 97.766 52.6511C91.8535 48.2979 83.8294 46.1213 73.6937 46.1213C66.8066 46.1213 60.9915 47.0959 56.2485 49.0451C51.5055 50.9293 47.867 53.5607 45.3331 56.9393C42.8641 60.3179 41.6297 64.1513 41.6297 68.4394C41.4997 72.0129 42.2469 75.1316 43.8712 77.7955C45.5605 80.4594 47.867 82.7659 50.7908 84.7151C53.7146 86.5993 57.0932 88.2561 60.9265 89.6855C64.7599 91.0499 68.8532 92.2194 73.2064 93.194L91.1388 97.4822C99.8452 99.4314 107.837 102.03 115.114 105.279C122.391 108.528 128.693 112.523 134.021 117.266C139.349 122.009 143.474 127.597 146.398 134.029C149.387 140.462 150.914 147.836 150.979 156.153C150.914 168.367 147.795 178.958 141.623 187.924C135.515 196.825 126.679 203.745 115.114 208.683C103.614 213.556 89.7419 215.992 73.4987 215.992C57.3855 215.992 43.3514 213.523 31.3965 208.585C19.5065 203.648 10.2154 196.338 3.5232 186.657C-3.10401 176.911 -6.58004 164.859 -6.90491 150.5H33.9304C34.3852 157.192 36.3019 162.78 39.6805 167.263C43.124 171.681 47.7046 175.027 53.4222 177.301C59.2048 179.51 65.7345 180.615 73.0114 180.615C80.1584 180.615 86.3633 179.575 91.6261 177.496C96.9539 175.417 101.08 172.526 104.003 168.822C106.927 165.119 108.389 160.863 108.389 156.055C108.389 151.572 107.057 147.804 104.393 144.75C101.794 141.696 97.9609 139.097 92.8931 136.953C87.8902 134.809 81.7503 132.86 74.4733 131.106L52.74 125.648C35.9121 121.555 22.6252 115.155 12.8793 106.448C3.13337 97.7421 -1.7071 86.0145 -1.64212 71.2657C-1.7071 59.1808 1.50905 48.6228 8.00632 39.5916C14.5686 30.5604 23.5673 23.5109 35.0024 18.443C46.4376 13.3751 59.4322 10.8412 73.986 10.8412C88.7998 10.8412 101.729 13.3751 112.775 18.443C123.885 23.5109 132.526 30.5604 138.699 39.5916C144.871 48.6228 148.055 59.0834 148.25 70.9734H107.804ZM258.208 63.469V94.6559H168.058V63.469H258.208ZM188.525 27.6041H230.042V167.165C230.042 170.999 230.627 173.988 231.796 176.132C232.966 178.211 234.59 179.673 236.669 180.517C238.814 181.362 241.282 181.784 244.076 181.784C246.025 181.784 247.975 181.622 249.924 181.297C251.873 180.907 253.367 180.615 254.407 180.42L260.937 211.314C258.858 211.964 255.934 212.711 252.165 213.556C248.397 214.465 243.816 215.018 238.424 215.213C228.418 215.602 219.647 214.271 212.11 211.217C204.638 208.163 198.823 203.42 194.665 196.988C190.506 190.556 188.46 182.434 188.525 172.623V27.6041ZM351.281 216.09C336.143 216.09 323.051 212.874 312.005 206.441C301.025 199.944 292.546 190.913 286.568 179.348C280.591 167.718 277.602 154.236 277.602 138.902C277.602 123.439 280.591 109.924 286.568 98.3593C292.546 86.7292 301.025 77.698 312.005 71.2657C323.051 64.7685 336.143 61.5199 351.281 61.5199C366.42 61.5199 379.479 64.7685 390.46 71.2657C401.505 77.698 410.016 86.7292 415.994 98.3593C421.971 109.924 424.96 123.439 424.96 138.902C424.96 154.236 421.971 167.718 415.994 179.348C410.016 190.913 401.505 199.944 390.46 206.441C379.479 212.874 366.42 216.09 351.281 216.09ZM351.476 183.928C358.363 183.928 364.113 181.979 368.726 178.081C373.339 174.117 376.815 168.725 379.154 161.903C381.558 155.08 382.76 147.316 382.76 138.61C382.76 129.904 381.558 122.139 379.154 115.317C376.815 108.495 373.339 103.102 368.726 99.139C364.113 95.1757 358.363 93.194 351.476 93.194C344.524 93.194 338.676 95.1757 333.933 99.139C329.255 103.102 325.714 108.495 323.31 115.317C320.971 122.139 319.802 129.904 319.802 138.61C319.802 147.316 320.971 155.08 323.31 161.903C325.714 168.725 329.255 174.117 333.933 178.081C338.676 181.979 344.524 183.928 351.476 183.928ZM519.593 216.09C504.259 216.09 491.07 212.841 480.024 206.344C469.044 199.782 460.598 190.685 454.685 179.055C448.838 167.425 445.914 154.041 445.914 138.902C445.914 123.569 448.87 110.119 454.783 98.5543C460.76 86.9242 469.239 77.8605 480.219 71.3632C491.2 64.801 504.259 61.5199 519.398 61.5199C532.457 61.5199 543.893 63.8914 553.703 68.6344C563.514 73.3774 571.279 80.0371 576.996 88.6134C582.714 97.1898 585.865 107.261 586.45 118.826H547.271C546.167 111.354 543.243 105.344 538.5 100.796C533.822 96.1828 527.682 93.8762 520.08 93.8762C513.648 93.8762 508.028 95.6305 503.22 99.139C498.477 102.583 494.773 107.618 492.109 114.245C489.446 120.872 488.114 128.896 488.114 138.318C488.114 147.869 489.413 155.99 492.012 162.682C494.676 169.374 498.412 174.475 503.22 177.983C508.028 181.492 513.648 183.246 520.08 183.246C524.823 183.246 529.079 182.272 532.847 180.322C536.681 178.373 539.832 175.547 542.301 171.843C544.835 168.075 546.492 163.559 547.271 158.297H586.45C585.8 169.732 582.681 179.803 577.094 188.509C571.571 197.15 563.937 203.907 554.191 208.78C544.445 213.653 532.912 216.09 519.593 216.09ZM650.651 170.089L650.748 120.288H656.791L704.74 63.469H752.398L687.978 138.707H678.134L650.651 170.089ZM613.032 213.166V13.57H654.549V213.166H613.032ZM706.592 213.166L662.541 147.966L690.219 118.631L755.224 213.166H706.592Z" fill="white"/>
<path d="M914.74 63.469L862.405 213.166H815.624L763.289 63.469H807.146L838.235 170.576H839.794L870.786 63.469H914.74ZM935.986 213.166V63.469H977.504V213.166H935.986ZM956.842 44.1722C950.67 44.1722 945.375 42.1255 940.957 38.0322C936.603 33.874 934.427 28.9036 934.427 23.121C934.427 17.4034 936.603 12.498 940.957 8.40472C945.375 4.24646 950.67 2.16734 956.842 2.16734C963.015 2.16734 968.278 4.24646 972.631 8.40472C977.049 12.498 979.258 17.4034 979.258 23.121C979.258 28.9036 977.049 33.874 972.631 38.0322C968.278 42.1255 963.015 44.1722 956.842 44.1722ZM1078.98 216.09C1063.58 216.09 1050.33 212.971 1039.22 206.734C1028.17 200.431 1019.66 191.53 1013.69 180.03C1007.71 168.465 1004.72 154.788 1004.72 139C1004.72 123.601 1007.71 110.087 1013.69 98.4568C1019.66 86.8267 1028.08 77.763 1038.93 71.2657C1049.84 64.7685 1062.64 61.5199 1077.33 61.5199C1087.2 61.5199 1096.4 63.1117 1104.91 66.2953C1113.48 69.414 1120.96 74.1245 1127.32 80.4269C1133.75 86.7292 1138.76 94.6559 1142.33 104.207C1145.9 113.693 1147.69 124.803 1147.69 137.538V148.941H1021.29V123.211H1108.61C1108.61 117.234 1107.31 111.939 1104.71 107.326C1102.11 102.713 1098.51 99.1065 1093.89 96.5076C1089.35 93.8437 1084.05 92.5118 1078.01 92.5118C1071.71 92.5118 1066.12 93.9737 1061.25 96.8975C1056.44 99.7563 1052.67 103.622 1049.94 108.495C1047.21 113.303 1045.81 118.663 1045.75 124.576V149.038C1045.75 156.445 1047.11 162.845 1049.84 168.237C1052.64 173.63 1056.57 177.788 1061.64 180.712C1066.7 183.636 1072.71 185.098 1079.67 185.098C1084.28 185.098 1088.5 184.448 1092.33 183.149C1096.17 181.849 1099.45 179.9 1102.18 177.301C1104.91 174.702 1106.99 171.519 1108.42 167.75L1146.81 170.284C1144.87 179.51 1140.87 187.567 1134.83 194.454C1128.85 201.276 1121.12 206.604 1111.63 210.437C1102.21 214.206 1091.33 216.09 1078.98 216.09ZM1203.24 213.166L1162.51 63.469H1204.51L1227.71 164.047H1229.07L1253.24 63.469H1294.46L1319.02 163.462H1320.29L1343.1 63.469H1385L1344.36 213.166H1300.41L1274.68 119.021H1272.83L1247.1 213.166H1203.24Z" fill="#7B5DFB"/>
</g>
<defs>
<clipPath id="clip0_13474_1761">
<rect width="1391" height="213" fill="white"/>
</clipPath>
</defs>
</svg>
